G04 ================== begin FILE IDENTIFICATION RECORD ==================*
G04 Layout Name:  C:/Users/user/Desktop/PULSE MODULATION/pulse modulation.brd*
G04 Film Name:    SilkT*
G04 File Format:  Gerber RS274X*
G04 File Origin:  Cadence Allegro 17.2-P019*
G04 Origin Date:  Tue Jul 30 17:34:47 2019*
G04 *
G04 Layer:  REF DES/SILKSCREEN_TOP*
G04 Layer:  PACKAGE GEOMETRY/SILKSCREEN_TOP*
G04 Layer:  BOARD GEOMETRY/SILKSCREEN_TOP*
G04 *
G04 Offset:    (0.000 0.000)*
G04 Mirror:    No*
G04 Mode:      Positive*
G04 Rotation:  0*
G04 FullContactRelief:  No*
G04 UndefLineWidth:     0.200*
G04 ================== end FILE IDENTIFICATION RECORD ====================*
%FSLAX25Y25*MOMM*%
%IR0*IPPOS*OFA0.00000B0.00000*MIA0B0*SFA1.00000B1.00000*%
%ADD10C,.4*%
%ADD11C,.203*%
%ADD12C,.2*%
G75*
%LPD*%
G75*
G54D10*
G01X4733800Y290000D02*
X4706800D01*
Y690000D01*
X4733800D01*
G01X4723000Y496700D02*
X4706800D01*
G01X4776100Y290000D02*
Y690000D01*
G01X4821800Y470000D02*
X4843400D01*
X4841400Y516700D01*
X4838000Y543300D01*
X4833300Y556700D01*
X4828500Y550000D01*
X4824500Y530000D01*
X4821800Y483300D01*
X4820400Y443300D01*
Y403300D01*
X4821800Y363300D01*
X4825100Y323300D01*
X4829200Y296700D01*
X4833900Y290000D01*
X4838700Y303300D01*
X4843400Y343300D01*
G01X4898500Y523300D02*
X4893800Y550000D01*
X4889700Y556700D01*
X4884300Y543300D01*
X4880300Y516700D01*
X4877600Y470000D01*
X4876900Y423300D01*
X4877600Y376700D01*
X4880300Y336700D01*
X4884300Y303300D01*
X4889700Y290000D01*
X4894500Y303300D01*
X4898500Y330000D01*
G01X4943500Y690000D02*
Y290000D01*
G01X4934000Y556700D02*
X4953000D01*
G01X4989800Y290000D02*
Y556700D01*
G01Y503300D02*
X4993200Y530000D01*
X4996600Y550000D01*
X5001300Y556700D01*
X5004700Y550000D01*
X5008800Y530000D01*
G01X5055100Y290000D02*
X5051000Y296700D01*
X5047000Y323300D01*
X5044300Y370000D01*
X5042900Y423300D01*
X5044300Y476700D01*
X5047000Y523300D01*
X5051000Y550000D01*
X5055100Y556700D01*
X5059200Y550000D01*
X5063200Y523300D01*
X5065900Y476700D01*
X5066600Y423300D01*
X5065900Y370000D01*
X5063200Y323300D01*
X5059200Y296700D01*
X5055100Y290000D01*
G01X5099400D02*
Y556700D01*
G01Y490000D02*
X5102100Y523300D01*
X5106200Y550000D01*
X5111600Y556700D01*
X5116300Y550000D01*
X5120400Y523300D01*
X5122400Y476700D01*
Y290000D01*
G01X5166700Y556700D02*
Y290000D01*
G01Y663300D02*
X5165300Y670000D01*
Y683300D01*
X5166700Y690000D01*
X5168100Y683300D01*
Y670000D01*
X5166700Y663300D01*
G01X5233300Y523300D02*
X5228600Y550000D01*
X5224500Y556700D01*
X5219100Y543300D01*
X5215100Y516700D01*
X5212400Y470000D01*
X5211700Y423300D01*
X5212400Y376700D01*
X5215100Y336700D01*
X5219100Y303300D01*
X5224500Y290000D01*
X5229300Y303300D01*
X5233300Y330000D01*
G01X5320600Y290000D02*
Y690000D01*
X5336800D01*
X5342200Y670000D01*
X5346300Y623300D01*
X5347600Y570000D01*
X5346300Y516700D01*
X5342900Y476700D01*
X5336800Y456700D01*
X5320600D01*
G01X5404800Y656700D02*
X5400700Y676700D01*
X5396000Y690000D01*
X5390600D01*
X5384500Y670000D01*
X5379800Y636700D01*
X5376400Y596700D01*
X5373700Y530000D01*
X5373000Y470000D01*
X5374300Y410000D01*
X5376400Y370000D01*
X5380400Y330000D01*
X5385200Y303300D01*
X5389900Y290000D01*
X5394600D01*
X5399400Y303300D01*
X5403400Y323300D01*
X5406800Y350000D01*
G01X5451100Y503300D02*
X5453800Y523300D01*
X5455800Y556700D01*
X5457200Y603300D01*
X5455800Y643300D01*
X5453100Y670000D01*
X5448400Y690000D01*
X5430100D01*
Y290000D01*
X5452500D01*
X5457200Y316700D01*
X5459900Y356700D01*
X5461300Y403300D01*
X5459900Y450000D01*
X5455800Y490000D01*
X5451100Y503300D01*
X5430100D01*
G01X4686800Y6380000D02*
Y6780000D01*
X4703000D01*
X4708400Y6760000D01*
X4712500Y6713300D01*
X4713800Y6660000D01*
X4712500Y6606700D01*
X4709100Y6566700D01*
X4703000Y6546700D01*
X4686800D01*
G01X4741200Y6780000D02*
Y6493300D01*
X4743900Y6433300D01*
X4749300Y6393300D01*
X4756100Y6380000D01*
X4762900Y6393300D01*
X4768300Y6433300D01*
X4771000Y6493300D01*
Y6780000D01*
G01X4798400D02*
Y6380000D01*
X4825400D01*
G01X4853500Y6433300D02*
X4858900Y6400000D01*
X4865000Y6380000D01*
X4870400D01*
X4875800Y6400000D01*
X4879900Y6433300D01*
X4881900Y6480000D01*
X4880600Y6526700D01*
X4877200Y6566700D01*
X4871100Y6593300D01*
X4863000Y6606700D01*
X4858200Y6633300D01*
X4856200Y6680000D01*
X4857600Y6726700D01*
X4860900Y6760000D01*
X4865700Y6780000D01*
X4870400D01*
X4875100Y6766700D01*
X4879200Y6733300D01*
G01X4937000Y6380000D02*
X4910000D01*
Y6780000D01*
X4937000D01*
G01X4926200Y6586700D02*
X4910000D01*
G01X5017500Y6380000D02*
Y6780000D01*
X5035100Y6446700D01*
X5052700Y6780000D01*
Y6380000D01*
G01X5090900D02*
X5085500Y6386700D01*
X5080800Y6413300D01*
X5076700Y6453300D01*
X5074000Y6500000D01*
X5072600Y6553300D01*
Y6606700D01*
X5074000Y6660000D01*
X5076700Y6706700D01*
X5080800Y6746700D01*
X5085500Y6773300D01*
X5090900Y6780000D01*
X5096300Y6773300D01*
X5101000Y6746700D01*
X5105100Y6706700D01*
X5107800Y6660000D01*
X5109200Y6606700D01*
Y6553300D01*
X5107800Y6500000D01*
X5105100Y6453300D01*
X5101000Y6413300D01*
X5096300Y6386700D01*
X5090900Y6380000D01*
G01X5131800D02*
Y6780000D01*
X5145300D01*
X5150800Y6760000D01*
X5154800Y6733300D01*
X5158200Y6693300D01*
X5160900Y6646700D01*
X5161600Y6580000D01*
X5160900Y6513300D01*
X5158200Y6466700D01*
X5154800Y6426700D01*
X5150800Y6400000D01*
X5145300Y6380000D01*
X5131800D01*
G01X5187600Y6780000D02*
Y6493300D01*
X5190300Y6433300D01*
X5195700Y6393300D01*
X5202500Y6380000D01*
X5209300Y6393300D01*
X5214700Y6433300D01*
X5217400Y6493300D01*
Y6780000D01*
G01X5244800D02*
Y6380000D01*
X5271800D01*
G01X5297200D02*
X5314100Y6780000D01*
X5331000Y6380000D01*
G01X5324900Y6520000D02*
X5303300D01*
G01X5369900Y6780000D02*
Y6380000D01*
G01X5354300Y6780000D02*
X5385500D01*
G01X5417600D02*
X5433800D01*
G01X5425700D02*
Y6380000D01*
G01X5417600D02*
X5433800D01*
G01X5481500D02*
X5476100Y6386700D01*
X5471400Y6413300D01*
X5467300Y6453300D01*
X5464600Y6500000D01*
X5463200Y6553300D01*
Y6606700D01*
X5464600Y6660000D01*
X5467300Y6706700D01*
X5471400Y6746700D01*
X5476100Y6773300D01*
X5481500Y6780000D01*
X5486900Y6773300D01*
X5491600Y6746700D01*
X5495700Y6706700D01*
X5498400Y6660000D01*
X5499800Y6606700D01*
Y6553300D01*
X5498400Y6500000D01*
X5495700Y6453300D01*
X5491600Y6413300D01*
X5486900Y6386700D01*
X5481500Y6380000D01*
G01X5521700D02*
Y6780000D01*
X5552900Y6380000D01*
Y6780000D01*
G54D11*
G01X4127500Y698500D02*
Y1206500D01*
G01X4066000Y2542000D02*
X4443000D01*
G01X3988100Y2730500D02*
X4008400Y2628600D01*
G01D02*
X4066000Y2542000D01*
G01D02*
X4068100Y2540000D01*
G01X4254500Y2996900D02*
X4152600Y2976600D01*
G01D02*
X4066000Y2919000D01*
G01D02*
X4008400Y2832400D01*
G01D02*
X3988100Y2730500D01*
G01X4381500Y1206500D02*
Y698500D01*
G01X4443000Y2542000D02*
X4500600Y2628600D01*
G01D02*
X4520900Y2730500D01*
G01D02*
X4500600Y2832400D01*
G01D02*
X4443000Y2919000D01*
G01D02*
X4356400Y2976600D01*
G01D02*
X4254500Y2996900D01*
G01X4445000Y4064000D02*
Y3556000D01*
G01X4191000D02*
Y4064000D01*
G01X5270500Y2032000D02*
Y2540000D01*
G01X5524500D02*
Y2032000D01*
G54D12*
G01X373000Y3127000D02*
X627000D01*
Y2111000D01*
X373000D01*
Y3127000D01*
G01X373100Y3205400D02*
X381100Y3192700D01*
X390800Y3184200D01*
X402000Y3180000D01*
X414900Y3184200D01*
X424600Y3192700D01*
X434200Y3205400D01*
X437400Y3222300D01*
Y3307000D01*
G01X534700Y3180000D02*
Y3307000D01*
X515400Y3281600D01*
G01Y3180000D02*
X554000D01*
G01X1069900Y3577000D02*
Y3486000D01*
X1076300Y3466900D01*
X1089200Y3454200D01*
X1105200Y3450000D01*
X1121300Y3454200D01*
X1134200Y3466900D01*
X1140600Y3486000D01*
Y3577000D01*
G01X1199400Y3469000D02*
X1209000Y3458500D01*
X1220300Y3452100D01*
X1234700Y3450000D01*
X1249200Y3454200D01*
X1260500Y3462700D01*
X1268500Y3477500D01*
X1270100Y3494400D01*
X1266900Y3511400D01*
X1258900Y3522000D01*
X1247600Y3530400D01*
X1236400Y3532500D01*
X1225100Y3530400D01*
X1210600Y3522000D01*
X1215400Y3577000D01*
X1258900D01*
G01X371100Y3775700D02*
X376000Y3767900D01*
X381800Y3762600D01*
X388700Y3760000D01*
X396400Y3762600D01*
X402300Y3767900D01*
X408100Y3775700D01*
X410100Y3786200D01*
Y3838700D01*
G01X447900Y3775700D02*
X453700Y3766600D01*
X461500Y3761300D01*
X470300Y3760000D01*
X478100Y3761300D01*
X485800Y3767900D01*
X490700Y3775700D01*
X491700Y3783600D01*
X489700Y3792800D01*
X482900Y3799300D01*
X476100Y3802000D01*
X467400D01*
G01X476100D02*
X482000Y3805900D01*
X486800Y3812500D01*
X488800Y3820300D01*
X486800Y3828200D01*
X482000Y3834800D01*
X473200Y3838700D01*
X464400Y3837400D01*
X455700Y3832100D01*
G01X373000Y4627000D02*
X627000D01*
Y3865000D01*
X373000D01*
Y4627000D01*
G01X1270000Y3213100D02*
Y3365500D01*
X1333500Y3429000D01*
Y3556000D01*
X1270000Y3619500D01*
Y3771900D01*
X2286000D01*
Y3213100D01*
X1270000D01*
G01X2260600Y2222500D02*
X2413000D01*
X2476500Y2159000D01*
X2603500D01*
X2667000Y2222500D01*
X2819400D01*
Y1206500D01*
X2260600D01*
Y2222500D01*
G01X2311400Y5651500D02*
X3022600D01*
Y5397500D01*
X2311400D01*
Y5651500D01*
G01X2581100Y5710000D02*
Y5788700D01*
X2605500D01*
X2613300Y5784800D01*
X2618100Y5779500D01*
X2620100Y5769000D01*
X2618100Y5758500D01*
X2612300Y5752000D01*
X2605500Y5748000D01*
X2581100D01*
G01X2605500D02*
X2620100Y5710000D01*
G01X2679300D02*
X2686100Y5711300D01*
X2693900Y5715200D01*
X2698800Y5721800D01*
X2700700Y5731000D01*
X2698800Y5740200D01*
X2692900Y5748000D01*
X2684200Y5752000D01*
X2674400D01*
X2668600Y5754600D01*
X2663700Y5761200D01*
X2661800Y5770300D01*
X2664700Y5779500D01*
X2671500Y5786100D01*
X2679300Y5788700D01*
X2687100Y5786100D01*
X2693900Y5779500D01*
X2696800Y5770300D01*
X2694900Y5761200D01*
X2690000Y5754600D01*
X2684200Y5752000D01*
X2674400D01*
X2665700Y5748000D01*
X2659800Y5740200D01*
X2657900Y5731000D01*
X2659800Y5721800D01*
X2664700Y5715200D01*
X2672500Y5711300D01*
X2679300Y5710000D01*
G01X3064700Y2077700D02*
Y1986700D01*
X3071100Y1967600D01*
X3084000Y1954900D01*
X3100000Y1950700D01*
X3116100Y1954900D01*
X3129000Y1967600D01*
X3135400Y1986700D01*
Y2077700D01*
G01X3229500Y1950700D02*
Y2077700D01*
X3210200Y2052300D01*
G01Y1950700D02*
X3248800D01*
G01X2857500Y3111500D02*
X3492500D01*
Y2603500D01*
X2857500D01*
Y3111500D01*
G01X2951100Y4610000D02*
Y4688700D01*
X2975500D01*
X2983300Y4684800D01*
X2988100Y4679500D01*
X2990100Y4669000D01*
X2988100Y4658500D01*
X2982300Y4652000D01*
X2975500Y4648000D01*
X2951100D01*
G01X2975500D02*
X2990100Y4610000D01*
G01X3032800Y4619200D02*
X3039600Y4612600D01*
X3047400Y4610000D01*
X3055100Y4612600D01*
X3062000Y4620500D01*
X3066800Y4632300D01*
X3068800Y4644100D01*
Y4658500D01*
X3066800Y4670300D01*
X3062000Y4680800D01*
X3056100Y4686100D01*
X3049300Y4688700D01*
X3041500Y4686100D01*
X3035700Y4680800D01*
X3031800Y4673000D01*
X3029800Y4662500D01*
X3031800Y4653300D01*
X3036600Y4644100D01*
X3042500Y4638900D01*
X3049300Y4637500D01*
X3057100Y4640200D01*
X3062900Y4646700D01*
X3068800Y4658500D01*
G01X3365500Y4927600D02*
Y4216400D01*
X3111500D01*
Y4927600D01*
X3365500D01*
G01X3553100Y2650000D02*
Y2777000D01*
X3593300D01*
X3606200Y2770600D01*
X3614200Y2762200D01*
X3617400Y2745200D01*
X3614200Y2728300D01*
X3604600Y2717700D01*
X3593300Y2711400D01*
X3553100D01*
G01X3593300D02*
X3617400Y2650000D01*
G01X3679400Y2669000D02*
X3689000Y2658500D01*
X3700300Y2652100D01*
X3714700Y2650000D01*
X3729200Y2654200D01*
X3740500Y2662700D01*
X3748500Y2677500D01*
X3750100Y2694400D01*
X3746900Y2711400D01*
X3738900Y2722000D01*
X3727600Y2730400D01*
X3716400Y2732500D01*
X3705100Y2730400D01*
X3690600Y2722000D01*
X3695400Y2777000D01*
X3738900D01*
G01X3561100Y2280000D02*
Y2358700D01*
X3585500D01*
X3593300Y2354800D01*
X3598100Y2349500D01*
X3600100Y2339000D01*
X3598100Y2328500D01*
X3592300Y2322000D01*
X3585500Y2318000D01*
X3561100D01*
G01X3585500D02*
X3600100Y2280000D01*
G01X3640800Y2345600D02*
X3646600Y2353500D01*
X3653500Y2357400D01*
X3661200Y2358700D01*
X3671000Y2356100D01*
X3677800Y2349500D01*
X3679700Y2341600D01*
X3678800Y2333800D01*
X3674900Y2327200D01*
X3655400Y2314100D01*
X3646600Y2304900D01*
X3640800Y2291800D01*
X3638900Y2280000D01*
X3679700D01*
G01X3517900Y2222500D02*
X4229100D01*
Y1968500D01*
X3517900D01*
Y2222500D01*
G01X4603200Y924600D02*
X4589000Y934200D01*
X4572400Y940500D01*
X4553500D01*
X4532100Y931000D01*
X4515600Y915100D01*
X4503700Y896000D01*
X4494200Y864300D01*
X4491800Y835700D01*
X4496600Y807100D01*
X4503700Y788100D01*
X4517900Y769000D01*
X4534500Y756300D01*
X4551100Y750000D01*
X4567700D01*
X4584300Y756300D01*
X4598500Y765900D01*
X4610400Y778600D01*
G01X4741600Y750000D02*
Y940500D01*
X4713200Y902400D01*
G01Y750000D02*
X4770000D01*
G01X4533900Y1778000D02*
X5245100D01*
Y1524000D01*
X4533900D01*
Y1778000D01*
G01X4331100Y2330000D02*
X4312100Y2333200D01*
X4295600Y2345900D01*
X4281300Y2364900D01*
X4271800Y2387100D01*
X4267100Y2412500D01*
Y2438000D01*
X4271800Y2463400D01*
X4281300Y2485600D01*
X4295600Y2504600D01*
X4312100Y2517300D01*
X4331100Y2520500D01*
X4350100Y2517300D01*
X4366600Y2504600D01*
X4380900Y2485600D01*
X4390400Y2463400D01*
X4395100Y2438000D01*
Y2412500D01*
X4390400Y2387100D01*
X4380900Y2364900D01*
X4366600Y2345900D01*
X4350100Y2333200D01*
X4331100Y2330000D01*
G01X4350100Y2380800D02*
X4378500Y2330000D01*
G01X4521600D02*
Y2520500D01*
X4493200Y2482400D01*
G01Y2330000D02*
X4550000D01*
G01X5003200Y2374600D02*
X4989000Y2384200D01*
X4972400Y2390500D01*
X4953500D01*
X4932100Y2381000D01*
X4915600Y2365100D01*
X4903700Y2346000D01*
X4894200Y2314300D01*
X4891800Y2285700D01*
X4896600Y2257100D01*
X4903700Y2238100D01*
X4917900Y2219000D01*
X4934500Y2206300D01*
X4951100Y2200000D01*
X4967700D01*
X4984300Y2206300D01*
X4998500Y2215900D01*
X5010400Y2228600D01*
G01X5096600Y2358800D02*
X5110800Y2377800D01*
X5127400Y2387300D01*
X5146300Y2390500D01*
X5170000Y2384200D01*
X5186600Y2368300D01*
X5191400Y2349200D01*
X5189000Y2330200D01*
X5179500Y2314300D01*
X5132100Y2282500D01*
X5110800Y2260300D01*
X5096600Y2228600D01*
X5091800Y2200000D01*
X5191400D01*
G01X4283200Y3524600D02*
X4269000Y3534200D01*
X4252400Y3540500D01*
X4233500D01*
X4212100Y3531000D01*
X4195600Y3515100D01*
X4183700Y3496000D01*
X4174200Y3464300D01*
X4171800Y3435700D01*
X4176600Y3407100D01*
X4183700Y3388100D01*
X4197900Y3369000D01*
X4214500Y3356300D01*
X4231100Y3350000D01*
X4247700D01*
X4264300Y3356300D01*
X4278500Y3365900D01*
X4290400Y3378600D01*
G01X4369500Y3388100D02*
X4383700Y3365900D01*
X4402600Y3353200D01*
X4424000Y3350000D01*
X4442900Y3353200D01*
X4461900Y3369000D01*
X4473700Y3388100D01*
X4476100Y3407100D01*
X4471400Y3429400D01*
X4454800Y3445200D01*
X4438200Y3451600D01*
X4416900D01*
G01X4438200D02*
X4452400Y3461100D01*
X4464300Y3477000D01*
X4469000Y3496000D01*
X4464300Y3515100D01*
X4452400Y3531000D01*
X4431100Y3540500D01*
X4409800Y3537300D01*
X4388400Y3524600D01*
G01X4921100Y1850000D02*
Y1928700D01*
X4945500D01*
X4953300Y1924800D01*
X4958100Y1919500D01*
X4960100Y1909000D01*
X4958100Y1898500D01*
X4952300Y1892000D01*
X4945500Y1888000D01*
X4921100D01*
G01X4945500D02*
X4960100Y1850000D01*
G01X5031000D02*
Y1928700D01*
X4995000Y1872300D01*
X5043600D01*
G01X5651500Y1676400D02*
Y2387600D01*
X5905500D01*
Y1676400D01*
X5651500D01*
G01X4991100Y5778500D02*
X5143500D01*
X5207000Y5715000D01*
X5334000D01*
X5397500Y5778500D01*
X5549900D01*
Y4762500D01*
X4991100D01*
Y5778500D01*
G01X5359900Y5977000D02*
Y5886000D01*
X5366300Y5866900D01*
X5379200Y5854200D01*
X5395200Y5850000D01*
X5411300Y5854200D01*
X5424200Y5866900D01*
X5430600Y5886000D01*
Y5977000D01*
G01X5489400Y5875400D02*
X5499000Y5860600D01*
X5511900Y5852100D01*
X5526400Y5850000D01*
X5539200Y5852100D01*
X5552100Y5862700D01*
X5560100Y5875400D01*
X5561700Y5888100D01*
X5558500Y5902900D01*
X5547300Y5913500D01*
X5536000Y5917700D01*
X5521500D01*
G01X5536000D02*
X5545700Y5924100D01*
X5553700Y5934700D01*
X5556900Y5947400D01*
X5553700Y5960100D01*
X5545700Y5970600D01*
X5531200Y5977000D01*
X5516700Y5974900D01*
X5502200Y5966400D01*
G01X6096000Y1739900D02*
Y2451100D01*
X6350000D01*
Y1739900D01*
X6096000D01*
G01X6401100Y2110000D02*
Y2188700D01*
X6425500D01*
X6433300Y2184800D01*
X6438100Y2179500D01*
X6440100Y2169000D01*
X6438100Y2158500D01*
X6432300Y2152000D01*
X6425500Y2148000D01*
X6401100D01*
G01X6425500D02*
X6440100Y2110000D01*
G01X6499300D02*
Y2188700D01*
X6487600Y2173000D01*
G01Y2110000D02*
X6511000D01*
G01X5927900Y2146300D02*
Y2225000D01*
X5952300D01*
X5960100Y2221100D01*
X5964900Y2215800D01*
X5966900Y2205300D01*
X5964900Y2194800D01*
X5959100Y2188300D01*
X5952300Y2184300D01*
X5927900D01*
G01X5952300D02*
X5966900Y2146300D01*
G01X6024200D02*
X6026100Y2163400D01*
X6029000Y2177800D01*
X6032900Y2190900D01*
X6037800Y2205300D01*
X6045600Y2225000D01*
X6006600D01*
G01X6415400Y6130000D02*
Y6193500D01*
X6428900D01*
X6434400Y6190300D01*
X6438400Y6186100D01*
X6441800Y6179700D01*
X6444500Y6172300D01*
X6445200Y6161700D01*
X6444500Y6151200D01*
X6441800Y6143800D01*
X6438400Y6137400D01*
X6434400Y6133200D01*
X6428900Y6130000D01*
X6415400D01*
G01X6486100D02*
Y6193500D01*
X6478000Y6180800D01*
G01Y6130000D02*
X6494200D01*
G01X6350000Y6451600D02*
X6756400D01*
Y6248400D01*
X6350000D01*
Y6451600D01*
G01X6464300D02*
Y6248400D01*
G01X6451600Y6451600D02*
Y6248400D01*
G01X7340600Y1968500D02*
X7493000D01*
X7556500Y1905000D01*
X7683500D01*
X7747000Y1968500D01*
X7899400D01*
Y952500D01*
X7340600D01*
Y1968500D01*
G01X7810500Y2286000D02*
Y2921000D01*
X8318500D01*
Y2286000D01*
X7810500D01*
G01X7822800Y2951500D02*
Y3078500D01*
X7863000D01*
X7875900Y3072100D01*
X7883900Y3063700D01*
X7887100Y3046700D01*
X7883900Y3029800D01*
X7874300Y3019200D01*
X7863000Y3012900D01*
X7822800D01*
G01X7863000D02*
X7887100Y2951500D01*
G01X7953900Y3004400D02*
X7965100Y3019200D01*
X7974800Y3027700D01*
X7987700Y3031900D01*
X7998900Y3027700D01*
X8007000Y3019200D01*
X8013400Y3006500D01*
X8015000Y2991700D01*
X8013400Y2979000D01*
X8007000Y2966300D01*
X7997300Y2955700D01*
X7986100Y2951500D01*
X7973200Y2955700D01*
X7961900Y2968400D01*
X7955500Y2987500D01*
X7953900Y3008600D01*
X7957100Y3036200D01*
X7961900Y3051000D01*
X7970000Y3065800D01*
X7981200Y3076400D01*
X7992500Y3078500D01*
X8003800Y3074300D01*
X8011800Y3063700D01*
G01X7213600Y5461000D02*
X7366000D01*
X7429500Y5397500D01*
X7556500D01*
X7620000Y5461000D01*
X7772400D01*
Y4445000D01*
X7213600D01*
Y5461000D01*
G01X7559900Y5627000D02*
Y5536000D01*
X7566300Y5516900D01*
X7579200Y5504200D01*
X7595200Y5500000D01*
X7611300Y5504200D01*
X7624200Y5516900D01*
X7630600Y5536000D01*
Y5627000D01*
G01X7744100Y5500000D02*
Y5627000D01*
X7684500Y5536000D01*
X7765000D01*
G01X7501800Y6070000D02*
Y6148700D01*
X7526200D01*
X7534000Y6144800D01*
X7538800Y6139500D01*
X7540800Y6129000D01*
X7538800Y6118500D01*
X7533000Y6112000D01*
X7526200Y6108000D01*
X7501800D01*
G01X7526200D02*
X7540800Y6070000D01*
G01X7600000D02*
Y6148700D01*
X7588300Y6133000D01*
G01Y6070000D02*
X7611700D01*
G01X7678700Y6148700D02*
X7670900Y6146100D01*
X7665100Y6139500D01*
X7661200Y6131600D01*
X7658300Y6121200D01*
X7657300Y6109300D01*
X7658300Y6097500D01*
X7661200Y6087100D01*
X7665100Y6079200D01*
X7670900Y6072600D01*
X7678700Y6070000D01*
X7686500Y6072600D01*
X7692300Y6079200D01*
X7696200Y6087100D01*
X7699100Y6097500D01*
X7700100Y6109300D01*
X7699100Y6121200D01*
X7696200Y6131600D01*
X7692300Y6139500D01*
X7686500Y6146100D01*
X7678700Y6148700D01*
G01X7264400Y6032500D02*
X7975600D01*
Y5778500D01*
X7264400D01*
Y6032500D01*
G01X8144700Y1823700D02*
Y1732700D01*
X8151100Y1713600D01*
X8164000Y1700900D01*
X8180000Y1696700D01*
X8196100Y1700900D01*
X8209000Y1713600D01*
X8215400Y1732700D01*
Y1823700D01*
G01X8279000Y1802500D02*
X8288600Y1815200D01*
X8299900Y1821600D01*
X8312800Y1823700D01*
X8328900Y1819500D01*
X8340100Y1808900D01*
X8343300Y1796200D01*
X8341700Y1783500D01*
X8335300Y1772900D01*
X8303100Y1751700D01*
X8288600Y1736900D01*
X8279000Y1715700D01*
X8275800Y1696700D01*
X8343300D01*
G01X8318500Y3962400D02*
Y4673600D01*
X8572500D01*
Y3962400D01*
X8318500D01*
G01X8561800Y4720000D02*
Y4798700D01*
X8586200D01*
X8594000Y4794800D01*
X8598800Y4789500D01*
X8600800Y4779000D01*
X8598800Y4768500D01*
X8593000Y4762000D01*
X8586200Y4758000D01*
X8561800D01*
G01X8586200D02*
X8600800Y4720000D01*
G01X8660000D02*
Y4798700D01*
X8648300Y4783000D01*
G01Y4720000D02*
X8671700D01*
G01X8720200Y4785600D02*
X8726000Y4793500D01*
X8732900Y4797400D01*
X8740600Y4798700D01*
X8750400Y4796100D01*
X8757200Y4789500D01*
X8759100Y4781600D01*
X8758200Y4773800D01*
X8754300Y4767200D01*
X8734800Y4754100D01*
X8726000Y4744900D01*
X8720200Y4731800D01*
X8718300Y4720000D01*
X8759100D01*
G01X8521800Y5730000D02*
Y5808700D01*
X8546200D01*
X8554000Y5804800D01*
X8558800Y5799500D01*
X8560800Y5789000D01*
X8558800Y5778500D01*
X8553000Y5772000D01*
X8546200Y5768000D01*
X8521800D01*
G01X8546200D02*
X8560800Y5730000D01*
G01X8620000D02*
Y5808700D01*
X8608300Y5793000D01*
G01Y5730000D02*
X8631700D01*
G01X8698700D02*
Y5808700D01*
X8687000Y5793000D01*
G01Y5730000D02*
X8710400D01*
G01X9627000Y2873000D02*
X9373000D01*
Y3381000D01*
X9627000D01*
Y2873000D01*
G01X9291100Y3625700D02*
X9296000Y3617900D01*
X9301800Y3612600D01*
X9308700Y3610000D01*
X9316400Y3612600D01*
X9322300Y3617900D01*
X9328100Y3625700D01*
X9330100Y3636200D01*
Y3688700D01*
G01X9370800Y3675600D02*
X9376600Y3683500D01*
X9383500Y3687400D01*
X9391200Y3688700D01*
X9401000Y3686100D01*
X9407800Y3679500D01*
X9409700Y3671600D01*
X9408800Y3663800D01*
X9404900Y3657200D01*
X9385400Y3644100D01*
X9376600Y3634900D01*
X9370800Y3621800D01*
X9368900Y3610000D01*
X9409700D01*
G01X9017000Y6197600D02*
Y5486400D01*
X8763000D01*
Y6197600D01*
X9017000D01*
M02*
