G04 ================== begin FILE IDENTIFICATION RECORD ==================*
G04 Layout Name:  C:/Users/user/Desktop/PULSE MODULATION/pulse modulation.brd*
G04 Film Name:    SolderT*
G04 File Format:  Gerber RS274X*
G04 File Origin:  Cadence Allegro 17.2-P019*
G04 Origin Date:  Tue Jul 30 17:34:47 2019*
G04 *
G04 Layer:  VIA CLASS/SOLDERMASK_TOP*
G04 Layer:  PIN/SOLDERMASK_TOP*
G04 Layer:  PACKAGE GEOMETRY/SOLDERMASK_TOP*
G04 Layer:  BOARD GEOMETRY/SOLDERMASK_TOP*
G04 *
G04 Offset:    (0.000 0.000)*
G04 Mirror:    No*
G04 Mode:      Positive*
G04 Rotation:  0*
G04 FullContactRelief:  No*
G04 UndefLineWidth:     0.000*
G04 ================== end FILE IDENTIFICATION RECORD ====================*
%FSLAX25Y25*MOMM*%
%IR0*IPPOS*OFA0.00000B0.00000*MIA0B0*SFA1.00000B1.00000*%
%ADD13C,2.032*%
%ADD17R,2.032X2.032*%
%ADD11C,1.905*%
%ADD15C,1.397*%
%ADD10C,3.683*%
%ADD12R,1.905X1.905*%
%ADD16O,1.016X1.524*%
%ADD14R,1.016X1.524*%
%LPD*%
G75*
G54D10*
X500000Y500000D03*
Y6500000D03*
X9500000Y500000D03*
Y6500000D03*
G54D11*
X500000Y2238000D03*
Y2492000D03*
Y2746000D03*
Y3000000D03*
Y3992000D03*
Y4246000D03*
Y4500000D03*
X1905000Y3111500D03*
X1651000D03*
X1905000Y3873500D03*
X1651000D03*
X1397000D03*
X2159000Y1333500D03*
Y1587500D03*
Y1841500D03*
Y3111500D03*
Y3873500D03*
X2921000Y1333500D03*
Y1587500D03*
Y1841500D03*
Y2095500D03*
Y2730500D03*
X3429000D03*
X3175000Y2984500D03*
X4889500Y4889500D03*
Y5143500D03*
Y5397500D03*
X5651500Y4889500D03*
Y5143500D03*
Y5397500D03*
Y5651500D03*
X7239000Y1079500D03*
Y1333500D03*
Y1587500D03*
X7112000Y4572000D03*
Y4826000D03*
Y5080000D03*
X8001000Y1079500D03*
Y1333500D03*
Y1587500D03*
Y1841500D03*
X7937500Y2603500D03*
X7874000Y4572000D03*
Y4826000D03*
Y5080000D03*
Y5334000D03*
X8191500Y2349500D03*
Y2857500D03*
X9500000Y3254000D03*
Y3000000D03*
G54D12*
X1397000Y3111500D03*
X2159000Y2095500D03*
X4889500Y5651500D03*
X7239000Y1841500D03*
X7112000Y5334000D03*
G54D13*
X2159000Y5524500D03*
X3365500Y2095500D03*
X3238500Y4064000D03*
Y5080000D03*
X3175000Y5524500D03*
X4381500Y1651000D03*
Y2095500D03*
X5397500Y1651000D03*
X5778500Y1524000D03*
Y2540000D03*
X6223000Y1587500D03*
Y2603500D03*
X7112000Y5905500D03*
X7010400Y6350000D03*
X8445500Y3810000D03*
Y4826000D03*
X8128000Y5905500D03*
X8890000Y5334000D03*
Y6350000D03*
G54D14*
X4127500Y2730500D03*
G54D15*
X4254500Y698500D03*
Y1206500D03*
X4318000Y4064000D03*
Y3556000D03*
X5397500Y2032000D03*
Y2540000D03*
G54D16*
X4254500Y2730500D03*
X4381500D03*
G54D17*
X6096000Y6350000D03*
M02*
