G04 ================== begin FILE IDENTIFICATION RECORD ==================*
G04 Layout Name:  C:/Users/user/Desktop/PULSE MODULATION/pulse modulation.brd*
G04 Film Name:    TOP*
G04 File Format:  Gerber RS274X*
G04 File Origin:  Cadence Allegro 17.2-P019*
G04 Origin Date:  Tue Jul 30 17:34:48 2019*
G04 *
G04 Layer:  ETCH/TOP*
G04 Layer:  PIN/TOP*
G04 Layer:  VIA CLASS/TOP*
G04 *
G04 Offset:    (0.000 0.000)*
G04 Mirror:    No*
G04 Mode:      Positive*
G04 Rotation:  0*
G04 FullContactRelief:  No*
G04 UndefLineWidth:     0.000*
G04 ================== end FILE IDENTIFICATION RECORD ====================*
%FSLAX25Y25*MOMM*%
%IR0*IPPOS*OFA0.00000B0.00000*MIA0B0*SFA1.00000B1.00000*%
%ADD11C,1.524*%
%ADD13C,1.651*%
%ADD12R,1.524X1.524*%
%ADD15C,1.397*%
%ADD17R,1.397X1.397*%
%ADD16O,1.016X1.524*%
%ADD14R,1.016X1.524*%
%ADD10C,.635*%
%ADD18C,1.*%
%ADD19C,.5*%
G75*
%LPD*%
G75*
G54D10*
X500000Y500000D03*
Y6500000D03*
X9500000Y500000D03*
Y6500000D03*
G54D11*
X500000Y2238000D03*
Y2492000D03*
Y2746000D03*
Y3000000D03*
Y3992000D03*
Y4246000D03*
Y4500000D03*
X1905000Y3111500D03*
X1651000D03*
X1905000Y3873500D03*
X1651000D03*
X1397000D03*
X2159000Y1333500D03*
Y1587500D03*
Y1841500D03*
Y3111500D03*
Y3873500D03*
X2921000Y1333500D03*
Y1587500D03*
Y1841500D03*
Y2095500D03*
Y2730500D03*
X3429000D03*
X3175000Y2984500D03*
X4889500Y4889500D03*
Y5143500D03*
Y5397500D03*
X5651500Y4889500D03*
Y5143500D03*
Y5397500D03*
Y5651500D03*
X7239000Y1079500D03*
Y1333500D03*
Y1587500D03*
X7112000Y4572000D03*
Y4826000D03*
Y5080000D03*
X8001000Y1079500D03*
Y1333500D03*
Y1587500D03*
Y1841500D03*
X7937500Y2603500D03*
X7874000Y4572000D03*
Y4826000D03*
Y5080000D03*
Y5334000D03*
X8191500Y2349500D03*
Y2857500D03*
X9500000Y3254000D03*
Y3000000D03*
G54D12*
X1397000Y3111500D03*
X2159000Y2095500D03*
X4889500Y5651500D03*
X7239000Y1841500D03*
X7112000Y5334000D03*
G54D13*
X2159000Y5524500D03*
X3365500Y2095500D03*
X3238500Y4064000D03*
Y5080000D03*
X3175000Y5524500D03*
X4381500Y1651000D03*
Y2095500D03*
X5397500Y1651000D03*
X5778500Y1524000D03*
Y2540000D03*
X6223000Y1587500D03*
Y2603500D03*
X7112000Y5905500D03*
X8445500Y3810000D03*
Y4826000D03*
X8128000Y5905500D03*
X8890000Y5334000D03*
Y6350000D03*
G54D14*
X4127500Y2730500D03*
G54D15*
X4254500Y698500D03*
Y1206500D03*
X4318000Y4064000D03*
Y3556000D03*
X5397500Y2032000D03*
Y2540000D03*
X7010400Y6350000D03*
G54D16*
X4254500Y2730500D03*
X4381500D03*
G54D17*
X6096000Y6350000D03*
G54D18*
G01X500000Y2492000D02*
X1762500D01*
X2159000Y2095500D01*
G01X500000Y3000000D02*
X611500Y3111500D01*
X1397000D01*
G01X500000Y2746000D02*
X2766500D01*
X2782000Y2730500D01*
X2921000D01*
G01X1651000Y3873500D02*
X1434200Y4090300D01*
X598300D01*
X500000Y3992000D01*
G01X3238500Y4064000D02*
X1841500D01*
X1651000Y3873500D01*
G01X2159000Y2095500D02*
X2356800Y2293300D01*
X5326700D01*
X5397500Y2222500D01*
Y2032000D01*
G01X7112000Y4572000D02*
Y3211600D01*
X7011900Y3111500D01*
X3244500D01*
X3232600Y3123400D01*
X3117400D01*
X3105500Y3111500D01*
X2159000D01*
G01X2921000Y2095500D02*
X3365500D01*
G01X2921000Y2730500D02*
X3175000Y2984500D01*
G01X3238500Y4064000D02*
X4318000D01*
G01X4254500Y698500D02*
X4445000Y889000D01*
Y1206500D01*
X4508500Y1270000D01*
X5588000D01*
G01X7112000Y4572000D02*
X5207000D01*
X4889500Y4889500D01*
G01X5588000Y1270000D02*
X5397500Y1460500D01*
Y1651000D01*
G01X6985000Y1270000D02*
X5588000D01*
G01X7874000Y5080000D02*
X7429500Y5524500D01*
X5778500D01*
X5651500Y5397500D01*
G01X9500000Y3254000D02*
X9484500Y3238500D01*
X9371000D01*
X9271000Y3138500D01*
Y1040600D01*
X9171000Y940600D01*
X7096900D01*
X6985000Y1052500D01*
Y1270000D01*
G01X7239000Y1333500D02*
X7100000D01*
X7036500Y1270000D01*
X6985000D01*
G54D19*
G01X4318000Y3556000D02*
X2222500D01*
X1905000Y3873500D01*
G01X2921000Y1333500D02*
X4127500D01*
X4254500Y1206500D01*
G01X3175000Y5524500D02*
X3048000Y5397500D01*
Y5016500D01*
X3104800Y4959700D01*
X3288300D01*
X3345100Y5016500D01*
X6921500D01*
X7112000Y4826000D01*
G01Y5080000D02*
X6921500Y5270500D01*
X3429000D01*
X3238500Y5080000D01*
G01X3429000Y2730500D02*
X4127500D01*
G01X5397500Y2540000D02*
Y2730500D01*
X5283600Y2844400D01*
X4343000D01*
X4254500Y2755900D01*
Y2730500D01*
G01X8128000Y5905500D02*
X8064500Y5969000D01*
X8001000D01*
X7937500Y6032500D01*
X5524500D01*
X4889500Y5397500D01*
G01X5397500Y2540000D02*
X5778500D01*
G01Y1524000D02*
X6039100D01*
X6102600Y1587500D01*
X6223000D01*
G01D02*
X7239000D01*
G01X6223000Y2603500D02*
X7937500D01*
G01X7112000Y4826000D02*
X7239000Y4699000D01*
X8191500D01*
X8318500Y4826000D01*
X8445500D01*
G01X7010400Y6350000D02*
X8890000D01*
M02*
